<svg width="106" height="21" viewBox="0 0 106 21" fill="none" xmlns="http://www.w3.org/2000/svg">
<ellipse cx="8.13681" cy="3.41823" rx="0.562596" ry="0.558488" fill="#383838"/>
<ellipse cx="14.2462" cy="13.3114" rx="0.562596" ry="0.558488" fill="#383838"/>
<ellipse cx="1.86728" cy="13.7902" rx="0.562596" ry="0.558488" fill="#383838"/>
<ellipse cx="9.74228" cy="3.41823" rx="0.562596" ry="0.558488" fill="#383838"/>
<ellipse cx="13.6017" cy="14.9071" rx="0.562596" ry="0.558488" fill="#383838"/>
<ellipse cx="1.0665" cy="12.354" rx="0.562596" ry="0.558488" fill="#383838"/>
<ellipse cx="8.86113" cy="4.93415" rx="0.482225" ry="0.478704" fill="#383838"/>
<ellipse cx="12.5564" cy="13.3912" rx="0.482225" ry="0.478704" fill="#383838"/>
<ellipse cx="2.5916" cy="12.2742" rx="0.482225" ry="0.478704" fill="#383838"/>
<ellipse cx="11.3511" cy="3.89697" rx="0.401854" ry="0.39892" fill="#383838"/>
<ellipse cx="0.581542" cy="10.7584" rx="0.401854" ry="0.39892" fill="#383838"/>
<ellipse cx="10.3862" cy="5.17346" rx="0.401854" ry="0.39892" fill="#383838"/>
<ellipse cx="2.19092" cy="10.918" rx="0.401854" ry="0.39892" fill="#383838"/>
<ellipse cx="12.6362" cy="4.53521" rx="0.401854" ry="0.39892" fill="#383838"/>
<ellipse cx="0.421385" cy="9.16265" rx="0.401854" ry="0.39892" fill="#383838"/>
<ellipse cx="12.6362" cy="16.0241" rx="0.401854" ry="0.39892" fill="#383838"/>
<ellipse cx="11.7551" cy="5.89158" rx="0.321483" ry="0.319136" fill="#383838"/>
<ellipse cx="1.94648" cy="9.40202" rx="0.321483" ry="0.319136" fill="#383838"/>
<ellipse cx="11.7551" cy="14.6678" rx="0.321483" ry="0.319136" fill="#383838"/>
<ellipse cx="9.82539" cy="6.52983" rx="0.321483" ry="0.319136" fill="#383838"/>
<ellipse cx="3.55586" cy="10.6786" rx="0.321483" ry="0.319136" fill="#383838"/>
<ellipse cx="10.7902" cy="13.5508" rx="0.321483" ry="0.319136" fill="#383838"/>
<ellipse cx="11.4348" cy="7.16807" rx="0.321483" ry="0.319136" fill="#383838"/>
<ellipse cx="3.3957" cy="9.08287" rx="0.321483" ry="0.319136" fill="#383838"/>
<ellipse cx="9.18086" cy="16.2635" rx="0.321483" ry="0.319136" fill="#383838"/>
<ellipse cx="9.66523" cy="14.8274" rx="0.321483" ry="0.319136" fill="#383838"/>
<ellipse cx="12.8801" cy="6.84892" rx="0.321483" ry="0.319136" fill="#383838"/>
<ellipse cx="2.43086" cy="7.96593" rx="0.321483" ry="0.319136" fill="#383838"/>
<ellipse cx="8.21601" cy="17.8592" rx="0.321483" ry="0.319136" fill="#383838"/>
<ellipse cx="10.6301" cy="15.6252" rx="0.321483" ry="0.319136" fill="#383838"/>
<ellipse cx="13.8449" cy="5.73192" rx="0.321483" ry="0.319136" fill="#383838"/>
<ellipse cx="0.82539" cy="7.64677" rx="0.321483" ry="0.319136" fill="#383838"/>
<ellipse cx="11.2707" cy="16.9017" rx="0.321483" ry="0.319136" fill="#383838"/>
<ellipse cx="13.1194" cy="12.5136" rx="0.0803708" ry="0.079784" fill="#383838"/>
<ellipse cx="7.17021" cy="4.85432" rx="0.0803708" ry="0.079784" fill="#383838"/>
<ellipse cx="3.95928" cy="13.7902" rx="0.0803708" ry="0.079784" fill="#383838"/>
<ellipse cx="15.1295" cy="11.636" rx="0.160742" ry="0.159568" fill="#383838"/>
<ellipse cx="6.4498" cy="6.37026" rx="0.160742" ry="0.159568" fill="#383838"/>
<ellipse cx="6.93027" cy="3.33846" rx="0.160742" ry="0.159568" fill="#383838"/>
<ellipse cx="4.84043" cy="14.987" rx="0.160742" ry="0.159568" fill="#383838"/>
<ellipse cx="13.6842" cy="11.1573" rx="0.160742" ry="0.159568" fill="#383838"/>
<ellipse cx="5.64512" cy="4.9341" rx="0.160742" ry="0.159568" fill="#383838"/>
<ellipse cx="2.91465" cy="14.8274" rx="0.160742" ry="0.159568" fill="#383838"/>
<ellipse cx="12.0748" cy="10.9977" rx="0.160742" ry="0.159568" fill="#383838"/>
<ellipse cx="5.64512" cy="13.7104" rx="0.160742" ry="0.159568" fill="#383838"/>
<ellipse cx="12.3153" cy="9.64145" rx="0.241113" ry="0.239352" fill="#383838"/>
<ellipse cx="5.08486" cy="6.92874" rx="0.241113" ry="0.239352" fill="#383838"/>
<ellipse cx="4.27627" cy="5.65213" rx="0.241113" ry="0.239352" fill="#383838"/>
<ellipse cx="5.08486" cy="16.9815" rx="0.241113" ry="0.239352" fill="#383838"/>
<ellipse cx="6.85049" cy="14.4284" rx="0.241113" ry="0.239352" fill="#383838"/>
<ellipse cx="13.9247" cy="9.64145" rx="0.241113" ry="0.239352" fill="#383838"/>
<ellipse cx="3.95596" cy="4.05649" rx="0.241113" ry="0.239352" fill="#383838"/>
<ellipse cx="6.0458" cy="15.705" rx="0.241113" ry="0.239352" fill="#383838"/>
<ellipse cx="15.37" cy="10.1201" rx="0.241113" ry="0.239352" fill="#383838"/>
<ellipse cx="5.24502" cy="3.57779" rx="0.241113" ry="0.239352" fill="#383838"/>
<ellipse cx="3.95596" cy="16.1837" rx="0.241113" ry="0.239352" fill="#383838"/>
<ellipse cx="15.2902" cy="8.44462" rx="0.321483" ry="0.319136" fill="#383838"/>
<ellipse cx="7.57539" cy="16.1039" rx="0.321483" ry="0.319136" fill="#383838"/>
<ellipse cx="13.6809" cy="8.12553" rx="0.321483" ry="0.319136" fill="#383838"/>
<ellipse cx="3.07539" cy="6.68938" rx="0.321483" ry="0.319136" fill="#383838"/>
<ellipse cx="6.61055" cy="17.54" rx="0.321483" ry="0.319136" fill="#383838"/>
<ellipse cx="14.8098" cy="7.00853" rx="0.321483" ry="0.319136" fill="#383838"/>
<ellipse cx="2.59101" cy="5.09367" rx="0.321483" ry="0.319136" fill="#383838"/>
<ellipse cx="1.46601" cy="6.21068" rx="0.321483" ry="0.319136" fill="#383838"/>
<ellipse cx="9.82539" cy="17.6996" rx="0.321483" ry="0.319136" fill="#383838"/>
<ellipse cx="12.0754" cy="8.28508" rx="0.321483" ry="0.319136" fill="#383838"/>
<ellipse cx="4.03633" cy="7.96593" rx="0.321483" ry="0.319136" fill="#383838"/>
<ellipse cx="8.21601" cy="14.6678" rx="0.321483" ry="0.319136" fill="#383838"/>
<path fill-rule="evenodd" clip-rule="evenodd" d="M60.5049 5.01886C58.9832 5.47321 57.4514 6.73062 56.7205 8.12553C56.1814 9.15432 56.1245 11.5136 56.6084 12.7897C57.8594 16.0909 62.1125 17.5376 65.3262 15.7547C66.9351 14.8621 67.1073 14.5485 66.4629 13.6833C66.0659 13.1504 65.9021 13.1156 65.4089 13.4611C63.0551 15.1088 60.9781 15.0737 59.2526 13.3564C58.3465 12.4548 58.2028 12.09 58.2028 10.6941C58.2028 9.42641 58.3824 8.86355 59.0339 8.09203C60.428 6.44049 62.8619 6.16969 64.9011 7.43902C65.4609 7.78742 65.6689 7.78742 66.0905 7.4387C66.9044 6.76539 66.6913 6.18708 65.3898 5.5376C63.6934 4.69074 62.1516 4.52717 60.5049 5.01886ZM98.1964 4.63904C94.9172 5.37643 92.7494 8.31919 93.3709 11.1902C94.2185 15.1063 97.4925 17.1607 101.157 16.0759C105.444 14.8065 106.923 9.64101 103.909 6.46543C102.393 4.86766 100.24 4.17923 98.1964 4.63904ZM20.4102 10.6271V16.4331H24.7708H29.1315V15.4671V14.5011H25.7399H22.3482V13.067V11.6324L24.5286 11.5375C26.6398 11.445 26.7122 11.4141 26.811 10.5566L26.9134 9.67113H24.6307H22.3482V8.22213V6.77312H25.4382H28.5285L28.4261 5.88762L28.324 5.00212L24.3671 4.91163L20.4102 4.82115V10.6271ZM30.6875 4.99986C30.3603 5.337 31.1042 6.77312 31.6061 6.77312C31.9482 6.77312 32.0387 7.78163 32.0387 11.6031V16.4331H34.6018C37.4075 16.4331 38.5871 16.114 39.7409 15.0431C40.949 13.9219 41.5068 12.5424 41.5343 10.6078C41.555 9.15883 41.3876 8.54799 40.6767 7.47734C39.3788 5.52182 38.2709 5.07617 34.2998 4.91228C32.4343 4.83532 30.8089 4.87493 30.6875 4.99986ZM43.7931 5.30029C43.6865 5.57753 43.6562 7.5076 43.7259 9.58934C43.8697 13.8823 44.3103 15.1152 46.0145 15.9959C47.4135 16.7188 50.3132 16.7204 51.676 15.9991C53.687 14.9345 54.0223 13.9193 53.9267 9.18813L53.8421 5.00212H53.0345H52.227L52.0655 9.18813C51.9767 11.4904 51.7929 13.5448 51.6572 13.7531C51.256 14.3694 49.1991 14.9024 48.0511 14.6879C46.0856 14.3202 45.7858 13.6324 45.6052 9.07543C45.4495 5.14991 45.4172 4.99825 44.7157 4.89907C44.2793 4.83725 43.9094 4.99825 43.7931 5.30029ZM72.2807 5.70666C72.4189 6.40218 71.9312 7.67988 70.1769 11.2161C68.921 13.7483 67.8932 15.9582 67.8932 16.1266C67.8932 16.768 69.7502 16.4367 70.235 15.7086C70.6656 15.0617 71.0329 14.9722 73.6583 14.8718C76.5583 14.7613 76.6045 14.7713 76.9818 15.5963C77.2628 16.2113 77.6072 16.4331 78.2816 16.4331C78.7859 16.4331 79.1987 16.3031 79.1987 16.144C79.1987 15.9849 78.0523 13.4131 76.6514 10.4285C74.2149 5.23814 74.0608 4.99761 73.1024 4.90165C72.1605 4.80699 72.1111 4.85529 72.2807 5.70666ZM102.151 7.42918C103.35 8.32725 103.68 9.28294 103.431 11.1338C103.107 13.5421 100.562 15.0809 98.1915 14.301C96.7002 13.8103 95.1278 11.9713 95.1278 10.7175C95.1278 7.02281 99.1151 5.15618 102.151 7.42918ZM38.58 7.99318C39.8104 9.21969 40.0588 11.0235 39.2102 12.5691C38.4334 13.9847 37.4627 14.4905 35.5111 14.4963L33.9767 14.5011V10.5921V6.68296L35.8105 6.87165C37.256 7.02042 37.8422 7.25773 38.58 7.99318ZM74.693 10.6697C75.2401 11.7503 75.642 12.6748 75.5858 12.724C75.5299 12.7736 74.5964 12.8754 73.5117 12.9504L71.5394 13.0866L72.51 10.8957C73.044 9.69109 73.5295 8.70513 73.5892 8.70513C73.6493 8.70513 74.1458 9.58934 74.693 10.6697Z" fill="#383838"/>
<path fill-rule="evenodd" clip-rule="evenodd" d="M80.2007 4.86282C79.8735 5.19995 80.6174 6.63608 81.1193 6.63608C81.4614 6.63608 81.5518 7.64459 81.5518 11.4661V16.2961H84.1149C86.9206 16.2961 88.1003 15.977 89.2541 14.906C90.4622 13.7848 91.02 12.4054 91.0475 10.4708C91.0681 9.02178 90.9008 8.41095 90.1899 7.34029C88.892 5.38478 87.7841 4.93913 83.8129 4.77523C81.9475 4.69827 80.3221 4.73788 80.2007 4.86282ZM88.7234 12.4321C89.5719 10.8865 89.3236 9.08264 88.0932 7.85614C87.3554 7.12069 86.7692 6.88338 85.3237 6.73461L83.4899 6.54592V10.4708V14.3641L85.0242 14.3593C86.9759 14.3535 87.9465 13.8476 88.7234 12.4321Z" fill="#383838"/>
</svg>
